<?xml version="1.0" standalone="no"?>
<!DOCTYPE svg PUBLIC "-//W3C//DTD SVG 20010904//EN"
 "http://www.w3.org/TR/2001/REC-SVG-20010904/DTD/svg10.dtd">
<svg version="1.0" xmlns="http://www.w3.org/2000/svg"
 width="1024.000000pt" height="1024.000000pt" viewBox="0 0 1024.000000 1024.000000"
 preserveAspectRatio="xMidYMid meet">
<metadata>
Created by potrace 1.14, written by Peter Selinger 2001-2017
</metadata>
<g transform="translate(0.000000,1024.000000) scale(0.100000,-0.100000)"
fill="#000000" stroke="none">
<path d="M7710 8700 c-14 -11 -28 -20 -32 -20 -25 -1 -161 -97 -197 -140 -39
-47 -40 -49 -15 -40 40 15 87 43 99 58 5 7 53 30 105 52 86 36 91 39 58 40
-45 0 -48 11 -11 38 16 11 26 23 23 26 -3 2 -16 -4 -30 -14z"/>
<path d="M7135 8440 c-3 -5 -1 -10 4 -10 6 0 11 5 11 10 0 6 -2 10 -4 10 -3 0
-8 -4 -11 -10z"/>
<path d="M7100 8420 c0 -6 -8 -13 -17 -17 -24 -8 -203 -135 -278 -197 -55 -45
-84 -70 -217 -189 -56 -50 -65 -72 -10 -27 132 111 297 243 357 284 92 65 185
139 185 149 0 4 -4 7 -10 7 -5 0 -10 -5 -10 -10z"/>
<path d="M7259 8348 c-24 -17 -50 -37 -56 -44 -7 -7 -18 -14 -25 -17 -7 -2
-11 -7 -8 -10 6 -6 125 64 149 87 29 30 -12 19 -60 -16z"/>
<path d="M7135 8250 c-3 -5 -2 -10 4 -10 5 0 13 5 16 10 3 6 2 10 -4 10 -5 0
-13 -4 -16 -10z"/>
<path d="M7085 8144 c-126 -90 -190 -143 -182 -151 6 -6 169 102 250 165 31
25 57 51 57 58 0 8 -1 14 -3 14 -1 0 -56 -39 -122 -86z"/>
<path d="M7094 7952 c-88 -65 -126 -96 -300 -247 -44 -38 -103 -89 -130 -111
-27 -23 -58 -50 -70 -60 -25 -23 -106 -92 -223 -193 -183 -156 -382 -372 -569
-616 -51 -66 -103 -133 -116 -150 -58 -74 -263 -350 -350 -470 -35 -49 -73
-99 -83 -110 -11 -11 -41 -52 -69 -91 -27 -39 -83 -116 -124 -170 -78 -103
-88 -117 -210 -286 -41 -56 -77 -105 -81 -108 -11 -9 -177 -246 -276 -393 -36
-54 -67 -96 -70 -94 -5 6 30 69 61 111 13 17 26 38 30 46 11 24 28 50 91 143
33 48 65 95 70 105 6 9 40 60 78 113 37 53 67 101 67 107 0 6 3 12 8 14 7 3
31 37 157 223 76 112 107 156 257 367 123 173 177 247 351 478 56 74 104 139
106 145 4 10 176 222 254 315 70 82 174 193 281 302 100 102 119 124 96 116
-10 -3 -182 -171 -291 -285 -65 -67 -221 -247 -289 -332 -19 -24 -47 -58 -61
-75 -14 -17 -45 -58 -69 -91 -24 -33 -47 -61 -52 -63 -4 -2 -8 -9 -8 -15 -1
-19 -59 -79 -70 -72 -5 3 -7 -1 -4 -9 7 -19 -76 -128 -93 -122 -6 3 -58 -58
-115 -136 -57 -77 -108 -146 -113 -152 -6 -6 -19 -22 -28 -36 -13 -19 -17 -21
-17 -7 0 9 4 17 9 17 5 0 11 8 15 18 3 9 15 32 26 50 11 17 16 32 12 32 -8 0
-102 -106 -102 -115 0 -13 -31 -37 -38 -30 -4 4 -1 10 6 12 6 3 12 13 12 22 0
10 8 29 18 42 10 13 76 109 147 214 70 104 133 194 140 200 6 5 23 30 37 55
27 47 108 161 155 217 38 47 76 114 61 108 -7 -3 -24 -22 -38 -42 -14 -20 -30
-41 -36 -47 -5 -6 -26 -32 -45 -57 -19 -25 -69 -92 -112 -148 -43 -57 -134
-182 -203 -280 -68 -97 -142 -198 -164 -226 -21 -27 -39 -55 -39 -61 -1 -12
-31 -29 -31 -18 0 3 17 31 39 62 21 32 83 125 137 207 124 189 359 521 394
555 3 3 24 31 47 62 28 37 41 63 37 75 -5 14 -4 15 4 4 9 -12 12 -12 25 0 21
21 38 57 29 62 -4 2 -2 2 5 1 16 -4 36 22 28 36 -4 6 -3 10 2 9 21 -4 33 2 33
16 0 8 4 15 9 15 5 0 16 12 26 26 9 15 12 23 6 20 -16 -10 -13 5 5 25 9 10 22
15 30 12 9 -3 12 0 9 9 -3 8 1 21 10 28 8 7 15 19 15 27 0 10 6 12 19 8 16 -5
18 -2 14 16 -5 17 -3 21 9 16 9 -3 15 0 14 7 -2 19 87 119 243 274 73 73 131
136 128 139 -10 9 -267 -242 -387 -377 -41 -47 -95 -107 -120 -135 -60 -66
-60 -66 -100 -115 -19 -24 -39 -48 -45 -54 -101 -113 -410 -522 -567 -751
-109 -160 -260 -384 -283 -421 -33 -52 -109 -163 -174 -254 -229 -320 -337
-499 -459 -760 -64 -138 -72 -157 -72 -174 0 -9 -4 -16 -10 -16 -5 0 -10 -9
-10 -20 0 -11 -9 -29 -20 -40 -11 -11 -20 -22 -20 -25 0 -11 -46 -75 -54 -75
-5 0 -6 14 -2 32 6 31 6 31 -14 13 -11 -10 -20 -14 -20 -9 0 11 26 89 41 124
6 14 17 39 24 55 52 120 153 316 179 344 9 10 16 21 16 25 0 8 31 61 119 206
25 41 51 82 56 91 6 9 23 39 39 65 76 128 202 313 213 314 7 0 10 7 6 15 -3 9
2 24 11 34 9 10 13 21 9 24 -3 4 -20 -12 -36 -36 -17 -23 -75 -101 -129 -174
-54 -72 -98 -136 -98 -142 0 -5 -4 -11 -9 -13 -4 -1 -54 -75 -111 -163 -114
-177 -270 -475 -270 -515 0 -7 -7 -28 -16 -48 -39 -88 -44 -101 -44 -110 0 -6
-15 -31 -34 -55 -19 -25 -42 -59 -51 -76 -17 -34 -39 -40 -49 -15 -10 25 6
154 21 169 7 8 13 21 13 29 0 9 5 16 10 16 6 0 10 9 10 21 0 11 5 17 10 14 6
-3 10 3 10 15 0 13 4 19 11 14 8 -4 9 1 4 16 -4 12 -3 25 2 29 5 3 22 33 38
66 17 33 33 62 36 65 3 3 11 20 18 37 7 18 17 31 21 28 5 -3 12 9 15 27 4 18
10 35 14 38 3 3 34 61 69 130 34 69 75 148 90 175 42 75 77 136 100 175 20 34
52 91 87 158 9 18 15 36 12 39 -7 6 -147 -205 -173 -260 -10 -20 -21 -37 -25
-37 -21 0 -16 24 14 72 19 29 52 87 74 128 22 41 57 103 77 137 20 34 36 64
36 66 0 3 17 34 38 68 21 35 46 82 56 104 10 22 29 51 41 65 12 14 45 61 72
105 133 214 157 250 164 253 5 2 9 8 9 12 0 5 20 37 44 72 24 35 46 76 50 92
5 22 10 26 16 16 7 -11 13 -11 34 4 27 17 34 40 15 51 -6 4 0 19 15 40 15 19
26 36 26 39 0 7 58 92 113 165 26 35 46 66 43 68 -5 5 -45 -38 -88 -92 -22
-28 -34 -31 -41 -12 -2 6 -2 2 0 -11 2 -13 -5 -31 -18 -45 l-21 -22 7 25 c7
23 6 24 -10 10 -9 -8 -56 -73 -102 -145 -47 -71 -106 -160 -132 -197 -25 -37
-52 -79 -59 -93 -7 -14 -16 -25 -20 -25 -4 0 -16 -17 -27 -37 -11 -21 -25 -42
-32 -46 -7 -4 -13 -14 -13 -21 0 -8 -6 -19 -14 -25 -8 -7 -12 -21 -8 -33 4
-15 2 -19 -7 -14 -8 5 -12 3 -11 -5 3 -21 -11 -59 -21 -59 -5 0 -9 -7 -9 -16
0 -8 -4 -12 -10 -9 -6 3 -7 -1 -4 -10 4 -9 -2 -23 -15 -34 -11 -10 -21 -26
-21 -35 0 -10 -4 -15 -9 -12 -5 3 -12 -10 -15 -29 -4 -19 -10 -35 -14 -35 -4
0 -13 -15 -20 -32 -10 -27 -14 -30 -23 -18 -7 11 -8 7 -3 -14 6 -24 4 -28 -9
-23 -11 4 -14 2 -10 -9 7 -18 -15 -46 -30 -37 -6 4 -8 -2 -4 -16 4 -17 2 -21
-9 -17 -8 3 -14 1 -14 -4 0 -6 -16 -33 -35 -60 -19 -27 -35 -52 -35 -55 0 -4
-18 -33 -40 -65 -22 -32 -40 -63 -40 -69 0 -5 -5 -13 -12 -17 -7 -4 -8 -3 -4
4 4 7 3 12 -3 12 -16 0 -25 -22 -11 -30 9 -6 8 -14 -5 -34 -14 -21 -20 -24
-27 -14 -7 9 -8 3 -4 -17 3 -16 3 -24 0 -17 -11 24 -24 12 -18 -15 6 -24 5
-26 -7 -16 -12 9 -19 5 -39 -24 -38 -56 -35 -21 5 54 21 37 41 73 45 78 4 6
30 53 57 105 28 52 69 123 92 157 22 34 41 65 41 68 0 4 8 19 19 33 19 28 121
202 121 208 0 2 16 28 35 58 19 30 35 58 35 61 0 3 15 30 34 58 30 48 57 95
124 217 14 25 29 50 34 57 6 7 8 18 6 25 -5 14 -98 -119 -98 -139 0 -7 -3 -13
-7 -13 -5 0 -33 -41 -63 -90 -32 -53 -56 -84 -58 -74 -2 8 3 23 10 32 25 30
80 142 75 155 -4 12 -95 -123 -123 -183 -4 -8 -19 -33 -33 -55 -13 -22 -29
-49 -35 -60 -6 -11 -38 -64 -71 -118 -33 -55 -75 -126 -92 -159 -39 -71 -63
-106 -63 -92 0 5 5 15 12 22 6 6 9 15 5 18 -9 9 -37 -15 -37 -31 0 -8 -3 -15
-8 -17 -9 -4 -92 -136 -92 -147 0 -4 -9 -16 -20 -26 -11 -10 -20 -26 -20 -36
0 -26 -15 -32 -31 -12 -12 15 -12 16 2 11 13 -5 16 -2 12 12 -3 10 0 21 6 24
5 4 8 13 4 21 -3 8 0 15 6 15 6 0 11 9 11 20 0 11 5 20 10 20 6 0 10 7 10 15
0 8 5 15 10 15 6 0 10 7 10 16 0 18 30 75 45 86 13 10 1 20 -17 13 -22 -9
-155 -248 -213 -385 -11 -25 -22 -47 -25 -50 -3 -3 -19 -31 -35 -62 -44 -90
-47 -77 -6 31 20 52 20 82 1 51 -5 -8 -22 -30 -37 -48 -15 -18 -42 -58 -60
-90 -17 -31 -37 -56 -43 -54 -7 1 -9 -5 -5 -17 3 -11 2 -28 -4 -38 -22 -41
-41 -87 -41 -100 0 -8 -6 -27 -14 -41 -33 -66 -46 -105 -40 -127 4 -15 2 -25
-5 -25 -6 0 -11 -6 -11 -14 0 -12 -13 -42 -51 -118 -5 -9 -5 -27 0 -39 7 -20
13 -12 49 63 23 47 42 90 42 95 0 6 6 16 13 22 14 11 -32 -146 -53 -181 -5
-10 -10 -27 -10 -39 0 -28 -47 -129 -61 -129 -6 0 -7 13 -4 34 9 46 -8 53 -31
11 -10 -18 -21 -32 -25 -29 -4 2 -11 0 -14 -6 -5 -8 -11 -7 -22 2 -12 10 -18
8 -33 -12 -23 -30 -50 -21 -50 17 l-1 28 -13 -24 c-13 -23 -14 -23 -24 -5 -11
18 -11 18 -12 -1 0 -11 -9 -29 -21 -38 -11 -10 -19 -26 -17 -35 3 -14 13 -17
53 -15 118 4 184 3 376 -5 112 -5 220 -9 239 -9 19 0 109 -8 200 -17 91 -9
245 -19 342 -21 208 -5 212 -4 419 100 72 36 134 63 137 61 3 -3 -7 -20 -22
-38 -43 -53 -139 -184 -237 -323 -108 -152 -160 -216 -212 -264 -21 -19 -45
-48 -54 -65 -8 -17 -25 -42 -38 -56 -12 -14 -28 -41 -34 -62 -7 -20 -44 -83
-84 -141 -40 -57 -76 -111 -82 -120 -5 -8 -50 -76 -100 -149 -49 -73 -94 -140
-100 -150 -5 -9 -59 -94 -120 -190 -60 -95 -115 -182 -122 -193 -19 -32 -74
-127 -96 -165 -10 -19 -37 -58 -58 -86 -21 -28 -39 -57 -39 -64 0 -22 -23 -80
-32 -80 -4 0 -8 -7 -8 -15 0 -8 -6 -15 -14 -15 -15 0 -30 -27 -27 -49 1 -8 -2
-10 -10 -5 -8 4 -10 3 -5 -4 4 -6 2 -21 -4 -32 -6 -12 -10 -26 -8 -31 2 -6 14
9 27 33 12 24 35 66 49 93 15 28 29 52 33 55 3 3 12 19 21 35 20 40 51 94 82
144 15 22 26 43 26 46 0 3 8 18 19 33 28 40 248 395 252 407 7 18 144 220 152
223 4 2 7 8 7 14 0 9 41 68 65 94 6 6 21 27 35 47 14 20 28 37 33 37 4 0 7 5
7 11 0 12 58 90 76 101 6 4 17 21 24 38 7 16 19 30 27 30 9 0 13 6 9 15 -3 9
0 15 10 15 8 0 18 8 21 17 4 10 16 28 28 40 35 38 45 52 45 63 0 5 4 10 9 10
5 0 28 28 52 61 24 34 55 74 69 88 36 38 62 80 55 91 -3 6 1 7 9 4 10 -4 16
-1 16 7 0 8 23 39 50 69 28 30 48 60 46 67 -3 7 -1 13 4 13 5 0 16 15 25 34 9
18 40 59 69 91 30 31 55 60 56 64 4 13 10 14 10 2 0 -17 10 -5 98 110 39 52
72 104 72 113 0 12 5 16 14 13 10 -4 13 -1 10 7 -3 7 3 16 13 20 10 3 30 14
45 23 15 10 57 37 95 60 37 22 111 68 163 101 187 119 396 247 440 271 25 13
47 27 50 30 10 12 77 54 142 88 15 8 30 18 33 23 5 8 63 40 72 40 1 0 3 -4 3
-10 0 -5 -7 -10 -15 -10 -8 0 -15 -4 -15 -8 0 -5 -16 -17 -35 -28 -19 -10 -35
-22 -35 -26 0 -5 -5 -8 -11 -8 -6 0 -25 -11 -43 -25 -18 -14 -38 -25 -44 -25
-7 0 -12 -4 -12 -9 0 -5 -8 -11 -17 -15 -10 -3 -27 -11 -37 -18 -58 -39 -238
-148 -243 -148 -3 0 -89 -53 -192 -119 -102 -65 -218 -137 -258 -160 -39 -22
-75 -50 -78 -61 -3 -11 -12 -26 -18 -32 -7 -7 -60 -78 -117 -158 -58 -80 -114
-156 -126 -170 -26 -30 -99 -117 -123 -145 -60 -73 -411 -537 -451 -596 -8
-12 -24 -34 -36 -48 -46 -58 -244 -343 -244 -351 0 -4 -4 -10 -9 -12 -11 -4
-61 -85 -61 -98 0 -6 30 28 67 77 85 111 205 263 224 283 8 8 28 32 43 53 16
21 31 35 33 33 5 -4 -49 -81 -80 -116 -7 -8 -24 -33 -38 -55 -23 -39 -42 -64
-66 -90 -7 -8 -13 -18 -13 -23 0 -5 -7 -15 -15 -22 -8 -7 -15 -16 -15 -21 0
-19 18 -7 43 28 15 21 27 33 27 26 0 -6 -7 -18 -15 -27 -8 -8 -15 -17 -15 -21
0 -3 -4 -11 -10 -18 -26 -32 -110 -149 -150 -210 -25 -37 -48 -67 -52 -67 -5
0 -8 -4 -8 -10 0 -5 -14 -32 -30 -61 -37 -61 -34 -84 4 -46 15 15 29 27 32 27
9 0 34 28 34 38 0 5 7 15 15 22 12 10 15 9 16 -6 1 -14 3 -12 8 6 5 14 4 33
-1 42 -5 12 -5 18 2 18 5 0 10 -5 10 -10 0 -6 12 0 26 14 26 24 61 26 47 2
-14 -22 -83 -122 -142 -206 -33 -47 -78 -114 -100 -150 -21 -36 -51 -78 -65
-95 -14 -16 -26 -35 -26 -41 0 -6 -7 -17 -15 -24 -8 -7 -15 -18 -15 -24 0 -6
16 7 35 29 20 22 41 47 49 55 7 8 21 30 32 49 25 46 64 85 64 66 0 -20 16 -19
24 0 3 8 1 15 -4 15 -18 0 -10 25 15 52 14 15 25 30 25 33 0 4 14 20 30 37 35
35 41 26 7 -11 -31 -33 -71 -101 -60 -101 4 1 18 13 30 28 128 159 416 485
535 605 38 38 68 71 69 75 0 9 59 55 59 47 0 -4 -14 -24 -30 -44 -17 -20 -36
-43 -42 -51 -6 -8 -25 -30 -41 -47 -17 -18 -28 -35 -25 -38 3 -4 32 21 64 55
156 164 177 183 155 141 -6 -10 -24 -30 -41 -44 -16 -14 -30 -28 -30 -31 0 -4
-12 -20 -27 -37 -16 -17 -28 -34 -28 -37 0 -4 -22 -29 -48 -57 -26 -27 -47
-54 -47 -61 0 -6 -11 -19 -24 -30 -14 -10 -23 -21 -20 -26 3 -4 -2 -8 -10 -8
-8 0 -18 -9 -21 -20 -3 -11 -10 -20 -15 -20 -5 0 -24 -21 -42 -47 -17 -27 -43
-59 -55 -73 -13 -14 -26 -33 -29 -42 -3 -10 -12 -18 -20 -18 -8 0 -14 -6 -14
-13 0 -8 -9 -22 -20 -32 -11 -10 -20 -23 -20 -29 0 -11 104 94 145 146 22 28
196 217 291 315 60 63 96 88 49 36 -20 -24 -51 -60 -181 -213 -12 -14 -57 -66
-100 -115 -44 -50 -90 -106 -104 -124 -14 -18 -30 -38 -36 -44 -23 -25 -49
-71 -35 -63 9 6 12 5 9 -5 -3 -8 -11 -13 -18 -11 -18 4 -62 -39 -55 -56 2 -7
1 -11 -4 -8 -14 9 -32 -20 -25 -40 5 -15 4 -16 -5 -4 -13 18 -23 9 -25 -24 -1
-18 -5 -24 -15 -21 -9 4 -11 0 -7 -11 3 -8 -1 -23 -10 -32 -15 -15 -16 -14 -9
8 l7 25 -21 -27 c-11 -14 -19 -32 -16 -40 5 -16 -13 -42 -37 -51 -10 -3 -15
-12 -13 -20 3 -7 -6 -24 -21 -37 l-26 -25 6 25 c6 21 5 22 -4 7 -6 -9 -9 -21
-5 -26 8 -15 -39 -78 -54 -73 -8 3 -11 0 -7 -7 8 -13 -41 -81 -57 -78 -6 1
-41 -38 -79 -88 -51 -68 -66 -95 -61 -112 3 -13 1 -23 -6 -23 -6 0 -8 7 -5 15
4 8 2 15 -4 15 -5 0 -12 -7 -16 -15 -3 -8 0 -15 6 -15 6 0 8 -12 5 -32 l-6
-33 22 29 c12 16 37 47 56 70 19 23 59 75 89 116 30 41 83 105 116 141 76 81
126 140 126 148 1 9 90 107 90 99 0 -4 -6 -13 -13 -20 -7 -7 -32 -41 -56 -75
-24 -35 -47 -63 -52 -63 -4 0 -25 -26 -46 -57 -88 -129 -103 -150 -149 -198
-26 -27 -83 -99 -126 -160 -43 -60 -91 -128 -108 -151 -16 -23 -30 -47 -30
-55 0 -14 34 20 114 115 154 184 260 293 300 310 17 7 70 53 118 102 134 138
225 234 222 234 -2 0 -18 -9 -36 -20 -18 -11 -41 -20 -51 -20 -10 0 -20 -7
-23 -15 -4 -8 -14 -15 -24 -15 -10 0 -20 -6 -23 -12 -2 -7 -8 -10 -12 -6 -5 4
3 18 16 30 13 13 33 40 44 61 11 21 32 52 48 68 15 17 27 36 28 42 0 7 4 3 9
-8 8 -19 9 -19 9 3 1 13 15 45 33 72 33 50 59 60 79 29 5 -8 9 -9 9 -2 0 10
74 102 133 168 11 11 53 63 95 115 42 52 103 127 135 165 33 39 80 95 106 125
56 67 155 182 236 275 33 38 114 125 180 192 66 68 118 123 116 123 -2 0 45
51 106 113 60 61 134 139 164 172 116 128 173 185 186 185 7 0 13 5 13 10 0 6
6 10 13 8 7 -2 33 17 58 42 24 25 64 60 87 79 23 19 39 38 35 44 -3 5 3 7 14
3 11 -4 30 -3 41 1 25 9 135 108 273 246 60 59 106 97 118 97 19 0 81 54 81
70 0 3 20 20 44 37 24 17 50 44 58 59 7 16 39 48 71 72 32 25 64 56 70 70 7
15 37 51 67 82 30 31 67 72 81 91 14 18 48 57 74 84 65 69 255 272 300 320 97
105 145 192 148 269 2 38 -2 51 -20 66 -38 30 -126 34 -285 11 -195 -28 -235
-33 -263 -33 -41 1 -123 -28 -161 -55 -17 -13 -36 -23 -42 -23 -7 0 -12 -4
-12 -9 0 -5 -11 -12 -24 -15 -14 -3 -54 -26 -91 -51 -36 -25 -68 -45 -71 -45
-3 0 -28 -15 -57 -33 -65 -41 -77 -46 -101 -37 -16 5 -14 9 15 23 21 9 35 24
36 36 2 19 1 19 -17 1 -10 -10 -34 -26 -54 -35 -20 -10 -36 -21 -36 -26 0 -5
-7 -9 -15 -9 -8 0 -35 -11 -60 -25 -25 -14 -45 -22 -45 -17 0 5 11 15 25 22
14 7 25 17 25 22 0 4 6 8 13 8 7 0 19 9 27 20 8 10 27 22 42 25 15 4 28 11 28
16 0 5 8 9 18 10 9 0 12 3 5 5 -6 3 -33 -6 -58 -20 -25 -14 -52 -26 -59 -26
-8 0 -19 -7 -26 -15 -7 -8 -22 -15 -34 -15 -12 0 -27 -5 -32 -10 -7 -7 -17 -5
-30 5 -16 13 -17 16 -4 24 21 14 60 43 84 63 31 26 3 21 -49 -7 -25 -14 -45
-21 -45 -14 0 6 9 13 20 16 11 3 20 9 20 14 0 5 9 9 19 9 11 0 23 5 26 10 4 6
30 24 58 40 l52 31 -55 -7 c-30 -4 -89 -13 -130 -21 -41 -8 -97 -18 -125 -23
-27 -5 -64 -12 -81 -16 -20 -3 -34 -2 -39 6 -5 8 -10 8 -20 0 -8 -6 -57 -12
-112 -14 -72 -1 -110 -7 -143 -21 -64 -29 -211 -105 -240 -125 -49 -34 -159
-90 -177 -89 -15 0 -15 2 -3 7 9 4 32 21 51 39 44 40 142 104 239 155 74 39
74 39 31 33 -42 -7 -154 -50 -284 -110 -112 -51 -110 -46 122 265 47 63 89
118 94 121 4 3 6 19 2 35 -3 19 -3 23 3 11 8 -18 9 -18 22 -1 12 13 12 18 2
21 -6 3 -9 9 -6 14 4 6 11 6 19 -1 9 -8 14 -5 18 10 3 11 1 18 -4 14 -5 -3 -9
-2 -9 3 1 11 37 53 46 53 4 0 3 -5 -4 -12 -7 -7 -12 -16 -12 -21 0 -5 7 -1 16
7 8 9 12 20 9 26 -3 5 2 23 12 40 17 30 33 39 33 19 0 -5 5 -7 11 -3 8 5 8 9
-1 14 -13 8 49 92 141 190 23 25 53 63 68 85 14 22 31 45 37 50 6 6 58 64 116
130 58 66 164 179 234 250 71 72 147 151 169 177 22 25 69 69 103 98 68 57 70
59 213 195 52 50 125 117 163 150 38 33 81 71 96 85 30 28 161 146 219 197 60
54 22 36 -75 -35z m-1714 -1617 c-7 -9 -15 -13 -17 -11 -7 7 7 26 19 26 6 0 6
-6 -2 -15z m-39 -52 c-12 -20 -14 -14 -5 12 4 9 9 14 11 11 3 -2 0 -13 -6 -23z
m-949 -75 c-8 -8 -9 -4 -5 13 4 13 8 18 11 10 2 -7 -1 -18 -6 -23z m2963 -148
c3 -6 -4 -10 -17 -10 -13 0 -34 -9 -48 -20 -14 -11 -31 -20 -37 -20 -25 0
-304 -162 -570 -331 -51 -33 -97 -59 -103 -59 -20 0 10 22 165 124 83 55 169
112 193 127 23 16 45 29 47 29 3 0 28 15 57 34 78 49 210 116 230 116 9 0 20
5 23 10 3 6 17 10 30 10 13 0 27 -4 30 -10z m-317 -27 c-10 -2 -18 -9 -18 -14
0 -5 -8 -9 -17 -9 -16 1 -16 2 1 15 11 8 27 14 35 14 13 -1 12 -2 -1 -6z
m-1928 -17 c0 -3 -4 -8 -10 -11 -5 -3 -10 -1 -10 4 0 6 5 11 10 11 6 0 10 -2
10 -4z m1817 -2 c-3 -3 -12 -4 -19 -1 -8 3 -5 6 6 6 11 1 17 -2 13 -5z m-42
-14 c3 -5 -1 -10 -9 -10 -9 0 -16 -3 -16 -8 0 -4 -23 -17 -50 -30 -28 -13 -48
-27 -45 -33 4 -5 -2 -9 -12 -9 -10 0 -29 -9 -43 -20 -14 -11 -30 -20 -37 -20
-6 0 -13 -4 -15 -8 -1 -5 -30 -23 -63 -42 -33 -18 -74 -44 -92 -57 -17 -12
-38 -23 -45 -23 -7 0 10 16 37 36 79 57 245 164 254 164 5 0 11 3 13 8 3 7 97
59 110 61 4 1 10 -3 13 -9z m85 -4 c-13 -13 -126 -76 -136 -76 -2 0 -4 3 -4 8
0 4 21 17 48 29 26 12 56 29 67 37 25 20 44 21 25 2z m-2020 -14 c0 -5 -8 -17
-18 -28 -10 -10 -22 -28 -26 -39 -5 -11 -10 -15 -13 -9 -2 6 7 28 19 47 22 34
38 47 38 29z m18 -97 c-7 -8 -26 -32 -43 -54 -31 -41 -55 -56 -33 -21 7 11 16
20 20 20 5 0 8 5 8 11 0 13 41 59 53 59 5 0 2 -7 -5 -15z m-102 -27 c-11 -15
-16 -18 -16 -7 0 16 21 42 28 34 2 -2 -3 -14 -12 -27z m-39 -56 c-10 -10 -17
-23 -17 -29 0 -5 -12 -20 -27 -34 -15 -13 -23 -17 -17 -9 5 8 23 34 38 58 16
23 31 40 34 37 3 -3 -2 -13 -11 -23z m43 -43 c-7 -11 -14 -18 -17 -15 -3 3 0
12 7 21 18 21 23 19 10 -6z m1242 -11 c-6 -6 -15 -8 -19 -4 -4 4 -1 11 7 16
19 12 27 3 12 -12z m-2075 -60 c-3 -8 -6 -5 -6 6 -1 11 2 17 5 13 3 -3 4 -12
1 -19z m671 -63 c-11 -20 -22 -34 -25 -32 -5 6 30 67 39 67 4 0 -2 -16 -14
-35z m1807 -45 c-3 -5 -11 -10 -16 -10 -6 0 -7 5 -4 10 3 6 11 10 16 10 6 0 7
-4 4 -10z m-2355 -141 c0 -12 -40 -72 -52 -77 -4 -2 -4 -10 -1 -19 4 -11 3
-14 -6 -9 -11 7 -6 45 8 56 3 3 12 17 20 33 15 27 31 36 31 16z m2090 -29 c0
-5 -4 -10 -10 -10 -5 0 -10 5 -10 10 0 6 5 10 10 10 6 0 10 -4 10 -10z m-30
-24 c0 -2 -7 -7 -16 -10 -8 -3 -12 -2 -9 4 6 10 25 14 25 6z m-2274 -68 c-18
-26 -22 -17 -5 14 6 11 13 17 16 15 3 -3 -2 -16 -11 -29z m144 2 c0 -6 -10
-21 -21 -33 -12 -12 -19 -15 -15 -7 3 8 9 23 12 33 7 18 24 24 24 7z m-184
-68 c-15 -15 -15 -15 -4 10 7 15 15 23 17 17 2 -6 -4 -18 -13 -27z m-226 -32
c0 -11 -4 -20 -9 -20 -5 0 -7 9 -4 20 3 11 7 20 9 20 2 0 4 -9 4 -20z m187
-42 c-3 -8 -6 -5 -6 6 -1 11 2 17 5 13 3 -3 4 -12 1 -19z m-214 -13 c-6 -30
-33 -56 -33 -31 0 9 4 16 9 16 5 0 11 9 14 20 7 29 15 25 10 -5z m332 -35 c3
-5 1 -10 -4 -10 -6 0 -11 5 -11 10 0 6 2 10 4 10 3 0 8 -4 11 -10z m-379 -61
c-8 -19 -15 -29 -15 -22 -1 18 19 67 25 61 3 -3 -2 -21 -10 -39z m1073 -26
c-21 -40 -25 -46 -76 -130 -18 -30 -33 -55 -33 -57 0 -3 -27 -50 -60 -107 -70
-118 -110 -199 -110 -222 0 -10 -4 -17 -10 -17 -5 0 -10 -8 -11 -17 0 -10 -3
-13 -5 -7 -10 25 93 252 156 344 35 51 80 121 80 125 0 6 82 125 86 125 2 0
-5 -17 -17 -37z m-744 -22 c-6 -5 -25 10 -25 20 0 5 6 4 14 -3 8 -7 12 -15 11
-17z m-15 -41 c0 -13 -1 -13 -10 0 -5 8 -10 22 -10 30 0 13 1 13 10 0 5 -8 10
-22 10 -30z m-33 -31 c-5 -4 -7 -11 -3 -17 3 -6 2 -13 -4 -17 -17 -11 -23 25
-9 51 12 23 14 24 20 7 3 -10 2 -21 -4 -24z m-176 -100 c-47 -100 -75 -183
-68 -201 3 -8 6 -5 7 7 0 11 7 29 16 40 13 17 16 18 24 5 7 -10 8 -4 3 19 -5
26 -3 32 7 26 15 -9 30 11 30 43 0 13 4 20 10 17 6 -3 10 0 10 9 0 8 3 16 8
18 4 2 18 25 32 52 13 26 26 44 28 38 2 -6 -4 -25 -13 -42 -9 -18 -14 -34 -12
-37 6 -6 47 52 47 66 0 17 17 13 24 -5 8 -22 8 -24 -8 -24 -8 0 -12 -8 -9 -23
3 -14 -2 -29 -11 -36 -9 -8 -16 -22 -16 -32 0 -11 -4 -19 -10 -19 -5 0 -10 -6
-10 -12 0 -14 -59 -160 -78 -196 -7 -12 -17 -20 -22 -17 -5 3 -13 -3 -19 -12
-10 -17 -10 -17 -11 0 0 9 -4 17 -10 17 -5 0 -10 -7 -10 -16 0 -14 -3 -14 -16
-3 -11 9 -14 25 -11 58 2 25 2 37 0 26 -3 -11 -8 -22 -12 -25 -4 -3 -15 -21
-25 -40 -12 -24 -15 -27 -11 -10 4 14 10 43 14 65 4 22 24 72 44 111 20 39 37
76 37 82 0 7 5 12 10 12 6 0 10 7 10 15 0 21 53 130 57 118 2 -6 -14 -48 -36
-94z m-134 -21 c-3 -8 -6 -5 -6 6 -1 11 2 17 5 13 3 -3 4 -12 1 -19z m826 -13
c-3 -9 -8 -14 -10 -11 -3 3 -2 9 2 15 9 16 15 13 8 -4z m-868 -67 c-3 -13 -10
-32 -14 -43 -5 -11 -17 -47 -27 -80 -10 -33 -21 -62 -25 -65 -3 -3 -9 -12 -12
-20 -4 -8 -4 1 -1 20 3 19 10 39 15 45 5 5 9 18 9 30 0 11 8 34 18 50 10 17
22 42 25 58 4 15 10 27 13 27 3 0 3 -10 -1 -22z m62 -10 c-3 -8 -6 -5 -6 6 -1
11 2 17 5 13 3 -3 4 -12 1 -19z m663 -67 c-25 -71 -54 -124 -68 -129 -17 -5
12 71 50 135 18 29 33 51 35 50 1 -2 -6 -27 -17 -56z m-697 -34 c-10 -29 -24
-63 -31 -77 l-14 -25 5 25 c6 28 25 86 38 112 5 10 10 26 10 35 1 17 2 17 6 0
3 -10 -4 -41 -14 -70z m621 58 c-4 -8 -8 -15 -10 -15 -2 0 -4 7 -4 15 0 8 4
15 10 15 5 0 7 -7 4 -15z m146 -5 c0 -5 -5 -10 -11 -10 -5 0 -7 5 -4 10 3 6 8
10 11 10 2 0 4 -4 4 -10z m-219 -37 c-10 -17 -10 -16 -11 3 0 23 13 41 18 25
2 -6 -1 -18 -7 -28z m35 -25 c-13 -18 -16 -19 -16 -5 0 9 5 17 10 17 6 0 10 8
11 18 0 10 3 12 6 5 2 -7 -3 -23 -11 -35z m139 -44 c-15 -30 -29 -53 -32 -50
-3 3 2 22 11 41 10 20 15 43 12 50 -3 9 0 12 10 8 9 -3 14 1 15 13 0 12 3 14
6 6 3 -7 -7 -38 -22 -68z m-198 24 c-3 -7 -5 -2 -5 12 0 14 2 19 5 13 2 -7 2
-19 0 -25z m688 -1115 c-24 -36 -66 -76 -73 -68 -5 5 76 95 86 95 2 0 -4 -12
-13 -27z m-145 -87 c0 -3 -4 -8 -10 -11 -5 -3 -10 -1 -10 4 0 6 5 11 10 11 6
0 10 -2 10 -4z m110 -46 c0 -5 -5 -10 -11 -10 -5 0 -7 5 -4 10 3 6 8 10 11 10
2 0 4 -4 4 -10z m-20 -23 c0 -2 -10 -12 -22 -23 l-23 -19 19 23 c18 21 26 27
26 19z m-680 -357 c-21 -30 -40 -39 -40 -20 0 6 7 13 15 16 8 4 15 12 15 20 0
8 7 14 16 14 13 0 12 -5 -6 -30z m61 -633 c-10 -9 -11 -8 -5 6 3 10 9 15 12
12 3 -3 0 -11 -7 -18z"/>
<path d="M4428 7818 c-34 -44 -98 -144 -98 -155 0 -4 -6 -14 -14 -22 -7 -9
-33 -72 -56 -141 -44 -129 -93 -237 -202 -445 -35 -66 -81 -158 -102 -205 -37
-81 -71 -154 -158 -340 -22 -47 -51 -110 -65 -140 -14 -30 -47 -100 -73 -155
-179 -374 -181 -377 -243 -525 -142 -337 -168 -402 -187 -455 -12 -33 -28 -73
-35 -90 -7 -16 -25 -66 -39 -110 -14 -44 -44 -134 -66 -200 -23 -66 -44 -145
-46 -175 l-5 -55 20 50 c10 28 33 91 51 140 37 109 118 322 150 400 11 28 13
28 21 10 5 -13 6 -3 2 25 -5 43 -5 44 11 25 17 -19 17 -19 12 20 -2 22 -2 32
0 23 6 -21 24 -24 24 -4 0 7 6 19 14 26 11 8 14 28 12 68 -1 31 -1 49 1 40 3
-10 8 -18 12 -18 12 0 22 58 15 86 -7 27 12 34 20 7 3 -10 3 0 1 22 -3 27 -1
35 5 25 8 -12 10 -12 15 2 4 10 3 22 -1 29 -4 7 -3 9 3 6 6 -4 16 8 23 26 6
17 16 39 20 48 5 9 6 27 3 39 -4 16 -3 21 5 16 8 -5 12 4 13 26 0 28 2 30 10
13 7 -16 8 -13 4 14 -4 30 -3 32 12 20 15 -13 16 -10 10 26 -3 22 -3 32 -1 23
8 -28 27 -21 22 7 -3 13 -1 22 3 19 5 -3 9 2 9 10 0 9 5 16 10 16 6 0 10 9 10
20 0 11 5 20 11 20 6 0 8 12 5 33 -5 24 -4 27 3 12 10 -19 10 -19 17 3 3 12
10 22 15 22 5 0 9 5 9 12 0 15 52 121 63 129 4 3 7 10 6 15 -4 21 2 28 12 14
8 -11 9 -8 4 14 -5 23 -3 27 10 23 12 -5 14 -1 9 18 -4 15 -2 25 5 25 6 0 11
9 11 20 0 11 6 19 13 17 7 -1 11 6 9 17 -2 11 1 15 8 11 7 -5 9 2 4 19 -5 21
-3 25 10 20 12 -4 16 0 16 15 0 12 5 21 11 21 6 0 9 9 6 20 -3 11 -2 18 2 15
4 -2 14 11 21 30 8 19 17 35 22 35 4 0 8 6 8 13 0 8 15 45 33 83 19 38 49 103
68 144 49 109 182 374 229 455 85 148 120 233 172 415 17 62 22 71 28 50 4
-18 9 -4 19 55 7 44 17 95 23 113 15 49 5 49 -34 0z m-1091 -2450 c-3 -7 -5
-2 -5 12 0 14 2 19 5 13 2 -7 2 -19 0 -25z"/>
<path d="M6344 7785 c-15 -13 -26 -27 -23 -29 3 -3 18 8 34 24 35 36 29 39
-11 5z"/>
<path d="M6280 7729 c0 -5 5 -7 10 -4 6 3 10 8 10 11 0 2 -4 4 -10 4 -5 0 -10
-5 -10 -11z"/>
<path d="M6557 7712 c-10 -10 -17 -22 -17 -27 0 -4 9 2 20 15 11 13 20 25 20
27 0 7 -8 2 -23 -15z"/>
<path d="M4810 7550 c0 -5 -6 -10 -14 -10 -24 0 -74 -70 -120 -165 -50 -103
-61 -135 -48 -135 21 0 89 78 152 175 53 81 69 115 63 133 -5 14 -33 16 -33 2z"/>
<path d="M6267 7098 c-15 -18 -43 -53 -63 -78 -19 -25 -39 -51 -45 -58 -6 -7
-8 -16 -5 -19 9 -9 61 42 104 102 20 28 40 52 44 53 10 5 10 32 0 32 -4 0 -20
-15 -35 -32z"/>
<path d="M6072 6875 c-23 -47 -21 -56 4 -30 17 17 37 75 25 75 -4 0 -17 -20
-29 -45z"/>
<path d="M4886 6881 c-11 -12 -16 -24 -12 -28 9 -9 39 22 34 37 -2 7 -10 4
-22 -9z"/>
<path d="M5995 6742 c-20 -14 -57 -73 -50 -80 7 -7 75 65 75 80 0 10 -11 10
-25 0z"/>
<path d="M5811 6604 c-23 -28 -28 -41 -19 -51 7 -9 6 -22 -7 -49 -9 -19 -14
-38 -11 -41 11 -12 74 67 79 99 3 18 7 42 9 52 5 33 -19 28 -51 -10z"/>
<path d="M5401 6394 c0 -11 3 -14 6 -6 3 7 2 16 -1 19 -3 4 -6 -2 -5 -13z"/>
<path d="M5576 6333 c-6 -14 -5 -15 5 -6 7 7 10 15 7 18 -3 3 -9 -2 -12 -12z"/>
<path d="M3982 6213 c-40 -60 -192 -377 -192 -403 0 -6 6 -10 13 -10 8 0 28
33 47 73 18 39 50 108 70 152 21 44 45 98 54 120 9 22 24 52 32 68 8 15 11 27
5 27 -5 0 -18 -12 -29 -27z"/>
<path d="M3593 6199 c-18 -24 -43 -77 -43 -94 0 -26 18 -7 40 42 21 48 23 76
3 52z"/>
<path d="M4809 6182 c-33 -35 -59 -78 -59 -94 1 -16 56 46 76 85 21 39 13 43
-17 9z"/>
<path d="M4808 6043 c-55 -61 -120 -173 -98 -173 5 0 21 18 37 41 15 22 45 61
66 87 52 66 49 103 -5 45z"/>
<path d="M6724 6005 c-15 -11 -16 -14 -3 -15 8 0 19 4 25 9 5 5 18 11 29 14
16 4 15 5 -6 6 -14 0 -34 -6 -45 -14z"/>
<path d="M6660 5977 c-14 -6 -27 -14 -30 -17 -3 -3 -22 -14 -42 -24 -21 -11
-38 -23 -38 -28 0 -4 -6 -8 -14 -8 -7 0 -20 -8 -27 -17 -9 -11 4 -7 36 12 28
15 64 35 80 44 70 38 97 67 35 38z"/>
<path d="M6265 5890 c-3 -5 -2 -10 4 -10 5 0 13 5 16 10 3 6 2 10 -4 10 -5 0
-13 -4 -16 -10z"/>
<path d="M6470 5850 c0 -5 5 -10 10 -10 6 0 10 5 10 10 0 6 -4 10 -10 10 -5 0
-10 -4 -10 -10z"/>
<path d="M4675 5842 c-13 -9 -65 -86 -65 -96 0 -4 -7 -14 -15 -22 -8 -9 -15
-25 -15 -37 0 -19 3 -17 21 12 11 19 26 40 34 47 37 38 71 119 40 96z"/>
<path d="M4424 5456 c-11 -12 -29 -37 -40 -56 -10 -19 -21 -37 -24 -40 -3 -3
-11 -16 -18 -29 -11 -18 -11 -22 -1 -19 12 4 40 44 55 78 4 8 18 30 31 48 29
39 27 49 -3 18z"/>
<path d="M4315 5290 c-18 -27 -34 -55 -41 -70 -4 -8 -11 -17 -15 -20 -4 -3
-23 -34 -42 -70 -19 -36 -54 -100 -77 -143 -23 -43 -39 -83 -37 -90 3 -7 6 -4
6 6 1 9 6 17 11 17 6 0 10 6 10 13 0 7 16 36 35 64 19 29 35 56 35 60 0 4 14
28 31 53 16 25 35 54 40 65 16 32 34 62 48 78 7 9 11 24 9 34 -3 15 -5 16 -13
3z"/>
<path d="M3452 5240 c0 -14 2 -19 5 -12 2 6 2 18 0 25 -3 6 -5 1 -5 -13z"/>
<path d="M3422 5160 c0 -14 2 -19 5 -12 2 6 2 18 0 25 -3 6 -5 1 -5 -13z"/>
<path d="M3402 5110 c0 -14 2 -19 5 -12 2 6 2 18 0 25 -3 6 -5 1 -5 -13z"/>
<path d="M3380 5064 c0 -8 5 -12 10 -9 6 3 10 10 10 16 0 5 -4 9 -10 9 -5 0
-10 -7 -10 -16z"/>
<path d="M3367 5024 c-4 -4 -7 -14 -7 -23 0 -11 3 -12 11 -4 6 6 10 16 7 23
-2 6 -7 8 -11 4z"/>
<path d="M3450 5014 c0 -8 5 -12 10 -9 6 4 8 11 5 16 -9 14 -15 11 -15 -7z"/>
<path d="M3351 4964 c0 -11 3 -14 6 -6 3 7 2 16 -1 19 -3 4 -6 -2 -5 -13z"/>
<path d="M3332 4920 c0 -14 2 -19 5 -12 2 6 2 18 0 25 -3 6 -5 1 -5 -13z"/>
<path d="M3393 4873 c-6 -21 -10 -39 -8 -41 7 -8 26 40 23 59 -2 15 -6 10 -15
-18z"/>
<path d="M3310 4869 c0 -5 5 -7 10 -4 6 3 10 8 10 11 0 2 -4 4 -10 4 -5 0 -10
-5 -10 -11z"/>
<path d="M3281 4794 c0 -11 3 -14 6 -6 3 7 2 16 -1 19 -3 4 -6 -2 -5 -13z"/>
<path d="M3366 4795 c-3 -8 -1 -15 4 -15 6 0 10 7 10 15 0 8 -2 15 -4 15 -2 0
-6 -7 -10 -15z"/>
<path d="M3390 4651 c0 -6 5 -13 10 -16 6 -3 10 1 10 9 0 9 -4 16 -10 16 -5 0
-10 -4 -10 -9z"/>
<path d="M3791 4624 c0 -11 3 -14 6 -6 3 7 2 16 -1 19 -3 4 -6 -2 -5 -13z"/>
<path d="M3025 4588 c-11 -33 -25 -95 -25 -109 0 -17 39 -39 71 -39 20 0 20 0
1 28 -29 42 -44 88 -37 111 3 12 4 21 0 21 -3 0 -7 -6 -10 -12z"/>
<path d="M5867 4228 c-8 -13 -24 -34 -36 -47 -23 -27 -26 -37 -11 -46 5 -3 18
12 29 33 11 21 27 44 35 51 9 8 16 17 16 22 0 17 -18 9 -33 -13z"/>
<path d="M5732 4140 c-19 -30 -14 -36 8 -10 22 25 24 30 12 30 -4 0 -13 -9
-20 -20z"/>
<path d="M5766 4121 c-4 -7 -5 -15 -2 -18 9 -9 19 4 14 18 -4 11 -6 11 -12 0z"/>
<path d="M4396 3135 c-16 -14 -26 -28 -22 -32 4 -4 21 7 39 25 37 38 25 43
-17 7z"/>
<path d="M4030 3140 c0 -5 5 -10 10 -10 6 0 10 5 10 10 0 6 -4 10 -10 10 -5 0
-10 -4 -10 -10z"/>
<path d="M4344 3075 c-9 -22 1 -29 15 -11 8 10 9 16 1 21 -5 3 -13 -1 -16 -10z"/>
<path d="M3907 3043 c-4 -3 -7 -11 -7 -17 0 -6 5 -5 12 2 6 6 9 14 7 17 -3 3
-9 2 -12 -2z"/>
<path d="M4283 3003 c-57 -61 -55 -71 3 -17 25 24 44 48 42 54 -1 5 -22 -11
-45 -37z"/>
<path d="M3843 2560 c-3 -11 -9 -20 -14 -20 -5 0 -9 -7 -9 -15 0 -8 5 -15 10
-15 6 0 10 5 10 11 0 6 7 17 15 25 18 18 20 34 4 34 -6 0 -13 -9 -16 -20z"/>
<path d="M4220 2495 c0 -8 2 -15 4 -15 2 0 6 7 10 15 3 8 1 15 -4 15 -6 0 -10
-7 -10 -15z"/>
<path d="M3776 2454 c-9 -8 -16 -20 -16 -26 0 -6 1 -9 3 -7 1 2 11 14 21 27
22 25 16 30 -8 6z"/>
<path d="M3681 2317 c-13 -21 -12 -21 5 -5 10 10 16 20 13 22 -3 3 -11 -5 -18
-17z"/>
<path d="M3620 2235 c0 -8 -17 -41 -39 -73 -21 -31 -49 -77 -62 -102 -13 -25
-27 -46 -31 -48 -5 -2 -8 -9 -8 -15 0 -6 11 0 25 13 14 13 25 28 25 33 0 6 11
25 25 43 14 18 25 35 25 39 0 9 54 90 63 93 13 6 7 32 -8 32 -8 0 -15 -7 -15
-15z"/>
<path d="M3200 1735 c-7 -14 -17 -25 -22 -25 -4 0 -8 -9 -8 -20 0 -32 16 -23
35 20 20 45 16 64 -5 25z"/>
<path d="M3148 1655 c-4 -20 -2 -23 8 -14 7 6 10 17 7 25 -7 20 -10 18 -15
-11z"/>
</g>
</svg>
